# xmcd
#
# Track frame offsets:
#	300
#	15352
#	30800
#	50956
#	65144
#	83356
#	101599
#	118455
#	134500
#	150198
#	167058
#	183983
#	202985
#	223321
#	239993
#	254253
#
# Disc length: 3596 seconds
#
# Revision: 1
# Processed by: cddbd v1.5.2PL0 Copyright (c) Steve Scherf et al.
# Submitted via: audiograbber 1.83.01
#
DISCID=e20e0810
DTITLE=Various Artist - sc8933
DYEAR=1900
DGENRE=country
TTITLE0=toby keith - you ain't leavin' (thank god are ya)
TTITLE1=cowboy troy ft. big and rich - I play chicken with the train
TTITLE2=kenny chesney - be as you are
TTITLE3=george strait - texas
TTITLE4=craig morgan - redneck yacht club
TTITLE5=dierks bentley - domestic, light and cold
TTITLE6=neal mccoy - billy's got his beer goggles on
TTITLE7=phil vassar - i'll take that as a yes
TTITLE8=hot apple pie - hillbillies
TTITLE9=jason aldean - kicktown
TTITLE10=jamie o'neal - somebody's hero
TTITLE11=trace adkins - arlington
TTITLE12=bobby pinson - don't ask me how I know
TTITLE13=toby keith and merle haggard - she ain't hooked on me no more
TTITLE14=joe nichols - tequila makes her clothes fall off
TTITLE15=cowboy troy ft. big and rich - I play chicken with the train [duet]
EXTD=
EXTT0=
EXTT1=
EXTT2=
EXTT3=
EXTT4=
EXTT5=
EXTT6=
EXTT7=
EXTT8=
EXTT9=
EXTT10=
EXTT11=
EXTT12=
EXTT13=
EXTT14=
EXTT15=
PLAYORDER=
